<svg xmlns="http://www.w3.org/2000/svg" viewBox="0 0 220 220">
  <!-- Pilot Hat (Improved Peaked Cap) -->
  <path d="M110 25c-45 0-78 18-82 42-0.6 3 1.4 6 4.3 7.2 25 10 130 10 155 0 2.9-1.2 4.9-4.2 4.3-7.2-4-24-37-42-82-42z" fill="#0A1A2F"/>
  
  <!-- Hat Band -->
  <rect x="45" y="67" width="130" height="18" rx="4" fill="#152A45"/>

  <!-- Shiny Visor -->
  <path d="M60 95c0 20 100 20 100 0 0-7-4-12-10-14H70c-6 2-10 7-10 14z" fill="#0A1A2F"/>
  
  <!-- Center Emblem Circle -->
  <circle cx="110" cy="76" r="8" fill="white"/>

  <!-- Wings Left -->
  <path d="M75 76c-5 0-10-3-12-7l-5-8h35l-8 15h-10z" fill="white"/>

  <!-- Wings Right -->
  <path d="M145 76c5 0 10-3 12-7l5-8h-35l8 15h10z" fill="white"/>

  <!-- Document -->
  <rect x="70" y="115" width="80" height="95" rx="8" fill="#0A1A2F"/>
  
  <!-- Document Lines -->
  <rect x="82" y="130" width="56" height="10" rx="2" fill="white"/>
  <rect x="82" y="150" width="56" height="10" rx="2" fill="white"/>
  
  <!-- Thumbnail Box -->
  <rect x="82" y="170" width="28" height="28" rx="3" fill="white"/>
</svg>
